# xmcd
#
# Track frame offsets:
#	150
#	21508
#	35292
#	50928
#	76500
#	93813
#	111210
#	129832
#	150544
#	173122
#
# Disc length: 2552 seconds
#
# Revision: 1
# Processed by: cddbd v1.5.2PL0 Copyright (c) Steve Scherf et al.
# Submitted via: audiograbber 1.83.01
#
DISCID=6f09f60a
DTITLE=Micheline Langlois - Et je te dis merci
DYEAR=2006
DGENRE=Québécois
TTITLE0=Et je te dis merci
TTITLE1=Toi, toujours toi
TTITLE2=Obscurite
TTITLE3=Louisiane
TTITLE4=La liberte
TTITLE5=Ma vie a moi
TTITLE6=Harricana
TTITLE7=Les oiseaux blancs
TTITLE8=Douce est la vie
TTITLE9=Fille du nord
EXTD=
EXTT0=
EXTT1=
EXTT2=
EXTT3=
EXTT4=
EXTT5=
EXTT6=
EXTT7=
EXTT8=
EXTT9=
PLAYORDER=
